<?xml version="1.0" encoding="UTF-8"?>
<svg xmlns="http://www.w3.org/2000/svg" version="1.1" width="500" height="500" viewBox="0 0 500 500"><rect x="0" y="0" width="500" height="500" fill="#ffffff"/><g transform="scale(17.241)"><g transform="translate(0,0)"><path fill-rule="evenodd" d="M10 0L10 2L11 2L11 0ZM12 0L12 1L13 1L13 2L12 2L12 4L14 4L14 5L11 5L11 6L10 6L10 4L11 4L11 3L8 3L8 4L9 4L9 5L8 5L8 7L9 7L9 8L6 8L6 9L5 9L5 8L0 8L0 9L1 9L1 10L0 10L0 11L1 11L1 12L0 12L0 15L1 15L1 17L0 17L0 21L1 21L1 17L2 17L2 15L3 15L3 13L4 13L4 12L5 12L5 14L4 14L4 15L5 15L5 17L8 17L8 18L9 18L9 17L10 17L10 19L7 19L7 18L6 18L6 19L3 19L3 18L2 18L2 21L3 21L3 20L5 20L5 21L7 21L7 20L8 20L8 23L9 23L9 21L11 21L11 20L10 20L10 19L11 19L11 17L12 17L12 18L13 18L13 19L12 19L12 21L13 21L13 20L14 20L14 21L19 21L19 22L17 22L17 23L16 23L16 22L15 22L15 23L14 23L14 24L15 24L15 25L12 25L12 23L13 23L13 22L10 22L10 23L11 23L11 25L12 25L12 26L13 26L13 27L12 27L12 29L13 29L13 28L14 28L14 29L16 29L16 28L17 28L17 27L16 27L16 26L17 26L17 24L18 24L18 26L19 26L19 27L18 27L18 29L20 29L20 28L21 28L21 29L26 29L26 28L27 28L27 27L28 27L28 28L29 28L29 27L28 27L28 26L26 26L26 25L29 25L29 23L27 23L27 22L28 22L28 20L29 20L29 19L27 19L27 18L29 18L29 17L27 17L27 18L26 18L26 17L24 17L24 16L25 16L25 15L24 15L24 14L23 14L23 15L21 15L21 14L20 14L20 13L21 13L21 12L25 12L25 14L26 14L26 16L29 16L29 14L28 14L28 13L27 13L27 12L29 12L29 10L26 10L26 8L25 8L25 10L26 10L26 11L19 11L19 9L18 9L18 10L17 10L17 11L16 11L16 12L14 12L14 14L15 14L15 15L16 15L16 16L15 16L15 18L14 18L14 17L12 17L12 15L13 15L13 14L10 14L10 13L11 13L11 12L5 12L5 11L8 11L8 9L10 9L10 11L11 11L11 9L12 9L12 10L13 10L13 11L12 11L12 13L13 13L13 11L15 11L15 10L16 10L16 8L15 8L15 4L16 4L16 5L17 5L17 6L16 6L16 7L17 7L17 6L18 6L18 7L19 7L19 8L20 8L20 9L21 9L21 10L22 10L22 8L21 8L21 6L20 6L20 7L19 7L19 5L20 5L20 4L19 4L19 3L21 3L21 2L19 2L19 3L17 3L17 2L18 2L18 1L17 1L17 0L15 0L15 1L13 1L13 0ZM20 0L20 1L21 1L21 0ZM8 1L8 2L9 2L9 1ZM15 1L15 2L14 2L14 3L16 3L16 4L17 4L17 5L18 5L18 4L17 4L17 3L16 3L16 2L17 2L17 1ZM9 6L9 7L10 7L10 6ZM11 6L11 7L12 7L12 9L13 9L13 10L15 10L15 9L13 9L13 8L14 8L14 6L13 6L13 7L12 7L12 6ZM10 8L10 9L11 9L11 8ZM23 8L23 9L24 9L24 8ZM27 8L27 9L28 9L28 8ZM2 9L2 10L3 10L3 11L2 11L2 12L1 12L1 13L3 13L3 12L4 12L4 10L5 10L5 9ZM6 9L6 10L7 10L7 9ZM17 11L17 12L19 12L19 13L20 13L20 12L19 12L19 11ZM26 11L26 12L27 12L27 11ZM6 13L6 14L7 14L7 15L6 15L6 16L8 16L8 17L9 17L9 15L10 15L10 17L11 17L11 15L10 15L10 14L9 14L9 13L8 13L8 14L7 14L7 13ZM15 13L15 14L18 14L18 13ZM26 13L26 14L27 14L27 15L28 15L28 14L27 14L27 13ZM19 14L19 15L17 15L17 17L16 17L16 19L14 19L14 20L16 20L16 19L17 19L17 20L19 20L19 21L20 21L20 20L19 20L19 19L17 19L17 18L20 18L20 19L21 19L21 20L22 20L22 19L25 19L25 18L23 18L23 17L22 17L22 16L19 16L19 15L20 15L20 14ZM23 15L23 16L24 16L24 15ZM3 16L3 17L4 17L4 16ZM18 16L18 17L19 17L19 16ZM20 17L20 18L22 18L22 17ZM6 19L6 20L7 20L7 19ZM26 19L26 20L25 20L25 21L26 21L26 22L25 22L25 23L26 23L26 22L27 22L27 19ZM21 21L21 24L24 24L24 21ZM19 22L19 23L18 23L18 24L19 24L19 25L20 25L20 24L19 24L19 23L20 23L20 22ZM22 22L22 23L23 23L23 22ZM15 23L15 24L16 24L16 23ZM8 24L8 29L9 29L9 27L10 27L10 29L11 29L11 26L10 26L10 24ZM25 24L25 25L22 25L22 27L21 27L21 26L20 26L20 27L19 27L19 28L20 28L20 27L21 27L21 28L26 28L26 26L25 26L25 25L26 25L26 24ZM23 26L23 27L24 27L24 26ZM14 27L14 28L16 28L16 27ZM0 0L7 0L7 7L0 7ZM1 1L1 6L6 6L6 1ZM2 2L5 2L5 5L2 5ZM22 0L29 0L29 7L22 7ZM23 1L23 6L28 6L28 1ZM24 2L27 2L27 5L24 5ZM0 22L7 22L7 29L0 29ZM1 23L1 28L6 28L6 23ZM2 24L5 24L5 27L2 27Z" fill="#000000"/></g></g></svg>
